<svg xmlns="http://www.w3.org/2000/svg" viewBox="0 0 200 200">
  <!-- Cień -->
  <ellipse cx="100" cy="170" rx="60" ry="12" fill="#0000001a"/>
  
  <!-- Ciało dzika -->
  <ellipse cx="100" cy="110" rx="60" ry="50" fill="#6B4423"/>
  
  <!-- Plecy/grzbiet ciemniejszy -->
  <ellipse cx="100" cy="95" rx="55" ry="35" fill="#5D3D1F" opacity="0.6"/>
  
  <!-- Głowa -->
  <ellipse cx="100" cy="70" rx="40" ry="35" fill="#6B4423"/>
  
  <!-- Uszy -->
  <ellipse cx="75" cy="45" rx="10" ry="18" fill="#6B4423" transform="rotate(-25 75 45)"/>
  <ellipse cx="125" cy="45" rx="10" ry="18" fill="#6B4423" transform="rotate(25 125 45)"/>
  <ellipse cx="75" cy="48" rx="5" ry="10" fill="#5D3D1F" transform="rotate(-25 75 48)"/>
  <ellipse cx="125" cy="48" rx="5" ry="10" fill="#5D3D1F" transform="rotate(25 125 48)"/>
  
  <!-- Pysk -->
  <ellipse cx="115" cy="75" rx="22" ry="16" fill="#8B5A3C"/>
  <ellipse cx="122" cy="75" rx="10" ry="8" fill="#7A4A2C"/>
  
  <!-- Nozdra -->
  <circle cx="119" cy="72" r="2.5" fill="#000"/>
  <circle cx="119" cy="78" r="2.5" fill="#000"/>
  
  <!-- Kły -->
  <path d="M 116 83 L 114 98 L 119 95 Z" fill="#F5DEB3"/>
  <path d="M 128 83 L 126 93 L 131 91 Z" fill="#F5DEB3"/>
  
  <!-- Oczy -->
  <circle cx="82" cy="62" r="4" fill="#000"/>
  <circle cx="83" cy="61" r="1.5" fill="#fff"/>
  <circle cx="108" cy="62" r="4" fill="#000"/>
  <circle cx="109" cy="61" r="1.5" fill="#fff"/>
  
  <!-- Brwi/zmarszczki -->
  <path d="M 78 58 Q 80 55 85 56" stroke="#5D3D1F" stroke-width="1.5" fill="none" stroke-linecap="round"/>
  <path d="M 115 56 Q 120 55 122 58" stroke="#5D3D1F" stroke-width="1.5" fill="none" stroke-linecap="round"/>
  
  <!-- Grzywa -->
  <path d="M 75 52 L 70 38 M 80 50 L 77 36 M 85 49 L 83 34 M 90 48 L 88 33 M 95 48 L 93 32" stroke="#4A2F1A" stroke-width="2.5" stroke-linecap="round"/>
  
  <!-- Nogi (grube) -->
  <rect x="68" y="148" width="16" height="30" rx="5" fill="#6B4423"/>
  <rect x="116" y="148" width="16" height="30" rx="5" fill="#6B4423"/>
  
  <!-- Kopyta -->
  <ellipse cx="76" cy="178" rx="10" ry="5" fill="#4A2F1A"/>
  <ellipse cx="124" cy="178" rx="10" ry="5" fill="#4A2F1A"/>
  
  <!-- Ogon -->
  <path d="M 158 105 Q 175 92 175 75" stroke="#4A2F1A" stroke-width="4" fill="none" stroke-linecap="round"/>
  <path d="M 175 72 Q 173 68 176 64" stroke="#4A2F1A" stroke-width="3" fill="none" stroke-linecap="round"/>
</svg>
