<svg xmlns="http://www.w3.org/2000/svg" viewBox="0 0 200 200">
  <defs>
    <linearGradient id="brownGrad" x1="0%" y1="0%" x2="0%" y2="100%">
      <stop offset="0%" style="stop-color:#8B4513;stop-opacity:1" />
      <stop offset="100%" style="stop-color:#5D2E1A;stop-opacity:1" />
    </linearGradient>
  </defs>
  
  <!-- Cień -->
  <ellipse cx="100" cy="175" rx="65" ry="15" fill="#00000030"/>
  
  <!-- Ciało dzika -->
  <ellipse cx="100" cy="115" rx="65" ry="55" fill="url(#brownGrad)"/>
  
  <!-- Głowa -->
  <ellipse cx="90" cy="75" rx="38" ry="32" fill="url(#brownGrad)"/>
  
  <!-- Uszy szpiczaste -->
  <path d="M 65 50 L 70 35 L 75 50 Z" fill="#654321"/>
  <path d="M 105 50 L 110 35 L 115 50 Z" fill="#654321"/>
  
  <!-- Pysk z kłami -->
  <ellipse cx="115" cy="80" rx="22" ry="18" fill="#704020"/>
  <ellipse cx="122" cy="80" rx="10" ry="8" fill="#5D2E1A"/>
  
  <!-- Kły -->
  <path d="M 120 88 L 118 100 L 122 100 Z" fill="#FFFACD"/>
  <path d="M 130 88 L 128 98 L 132 98 Z" fill="#FFFACD"/>
  
  <!-- Dziurki w nosie -->
  <circle cx="119" cy="77" r="2" fill="#000"/>
  <circle cx="119" cy="83" r="2" fill="#000"/>
  
  <!-- Oczy małe i groźne -->
  <circle cx="80" cy="68" r="4" fill="#000"/>
  <circle cx="81" cy="67" r="1.5" fill="#8B0000"/>
  <circle cx="100" cy="68" r="4" fill="#000"/>
  <circle cx="101" cy="67" r="1.5" fill="#8B0000"/>
  
  <!-- Grzywa/włosie -->
  <path d="M 70 60 L 65 50 M 75 58 L 72 48 M 80 57 L 78 47 M 85 56 L 85 46" stroke="#3D2416" stroke-width="2.5" stroke-linecap="round"/>
  
  <!-- Nogi masywne -->
  <rect x="65" y="145" width="15" height="30" rx="4" fill="#654321"/>
  <rect x="120" y="145" width="15" height="30" rx="4" fill="#654321"/>
  <rect x="65" y="170" width="15" height="8" rx="2" fill="#3D2416"/>
  <rect x="120" y="170" width="15" height="8" rx="2" fill="#3D2416"/>
  
  <!-- Ogon kręty -->
  <path d="M 165 115 Q 175 105 170 95 Q 168 88 175 85" stroke="#654321" stroke-width="3" fill="none" stroke-linecap="round"/>
</svg>
