<svg xmlns="http://www.w3.org/2000/svg" viewBox="0 0 200 200">
  <defs>
    <linearGradient id="redGrad" x1="0%" y1="0%" x2="0%" y2="100%">
      <stop offset="0%" style="stop-color:#DC143C;stop-opacity:1" />
      <stop offset="100%" style="stop-color:#8B0000;stop-opacity:1" />
    </linearGradient>
  </defs>
  
  <!-- Cień -->
  <ellipse cx="100" cy="180" rx="55" ry="12" fill="#00000025"/>
  
  <!-- Ciało koguta -->
  <ellipse cx="100" cy="110" rx="55" ry="65" fill="url(#redGrad)"/>
  
  <!-- Głowa -->
  <circle cx="100" cy="60" r="32" fill="url(#redGrad)"/>
  
  <!-- Dziób -->
  <path d="M 118 60 L 138 58 L 125 65 Z" fill="#FFD700"/>
  
  <!-- Oczy -->
  <circle cx="88" cy="55" r="5" fill="#000"/>
  <circle cx="89" cy="54" r="2" fill="#fff"/>
  
  <!-- Duży grzebień -->
  <path d="M 80 30 Q 85 15 90 30 Q 95 12 100 30 Q 105 15 110 30 Q 115 18 120 35" fill="#FF0000" stroke="#CC0000" stroke-width="2"/>
  
  <!-- Skrzydło z piórami -->
  <ellipse cx="70" cy="110" rx="25" ry="40" fill="#A52A2A" opacity="0.9"/>
  <path d="M 70 90 Q 50 90 50 110 Q 50 130 70 130" fill="#8B0000" opacity="0.7"/>
  
  <!-- Ogon -->
  <path d="M 145 100 Q 170 85 175 110 Q 175 95 165 115 Q 175 120 160 130" fill="#228B22" opacity="0.8" stroke="#006400" stroke-width="2"/>
  <path d="M 145 95 Q 165 75 170 95" fill="#006400" opacity="0.7"/>
  
  <!-- Nogi -->
  <line x1="80" y1="175" x2="80" y2="145" stroke="#FFD700" stroke-width="4"/>
  <line x1="120" y1="175" x2="120" y2="145" stroke="#FFD700" stroke-width="4"/>
  <path d="M 75 175 L 80 175 L 82 180 M 75 175 L 72 180" stroke="#FFD700" stroke-width="2.5" fill="none"/>
  <path d="M 115 175 L 120 175 L 122 180 M 115 175 L 112 180" stroke="#FFD700" stroke-width="2.5" fill="none"/>
</svg>
