<svg xmlns="http://www.w3.org/2000/svg" viewBox="0 0 200 200">
  <defs>
    <linearGradient id="yellowGrad" x1="0%" y1="0%" x2="0%" y2="100%">
      <stop offset="0%" style="stop-color:#FFD700;stop-opacity:1" />
      <stop offset="100%" style="stop-color:#FFA500;stop-opacity:1" />
    </linearGradient>
  </defs>
  
  <!-- Cień -->
  <ellipse cx="100" cy="175" rx="50" ry="10" fill="#00000020"/>
  
  <!-- Ciało kurczaka -->
  <ellipse cx="100" cy="120" rx="50" ry="60" fill="url(#yellowGrad)"/>
  
  <!-- Głowa -->
  <circle cx="100" cy="70" r="30" fill="url(#yellowGrad)"/>
  
  <!-- Dziób -->
  <path d="M 115 70 L 130 70 L 120 75 Z" fill="#FF6600"/>
  
  <!-- Oczy -->
  <circle cx="90" cy="65" r="4" fill="#000"/>
  <circle cx="91" cy="64" r="1.5" fill="#fff"/>
  
  <!-- Grzebień -->
  <path d="M 85 45 Q 90 35 95 45 Q 100 35 105 45 Q 110 35 115 45" fill="#FF0000" stroke="#CC0000" stroke-width="1"/>
  
  <!-- Skrzydło -->
  <ellipse cx="75" cy="120" rx="20" ry="35" fill="#FFB700" opacity="0.8"/>
  
  <!-- Nogi -->
  <line x1="85" y1="180" x2="85" y2="150" stroke="#FF8800" stroke-width="3"/>
  <line x1="115" y1="180" x2="115" y2="150" stroke="#FF8800" stroke-width="3"/>
  <path d="M 80 180 L 85 180 L 83 185" stroke="#FF8800" stroke-width="2" fill="none"/>
  <path d="M 110 180 L 115 180 L 113 185" stroke="#FF8800" stroke-width="2" fill="none"/>
</svg>
