<svg xmlns="http://www.w3.org/2000/svg" viewBox="0 0 200 200">
  <defs>
    <linearGradient id="pinkGrad" x1="0%" y1="0%" x2="0%" y2="100%">
      <stop offset="0%" style="stop-color:#FFB6C1;stop-opacity:1" />
      <stop offset="100%" style="stop-color:#FF69B4;stop-opacity:1" />
    </linearGradient>
  </defs>
  
  <!-- Cień -->
  <ellipse cx="100" cy="170" rx="60" ry="12" fill="#00000020"/>
  
  <!-- Ciało świnki -->
  <ellipse cx="100" cy="110" rx="60" ry="50" fill="url(#pinkGrad)"/>
  
  <!-- Głowa -->
  <ellipse cx="95" cy="70" rx="35" ry="30" fill="url(#pinkGrad)"/>
  
  <!-- Uszy -->
  <ellipse cx="75" cy="50" rx="12" ry="18" fill="#FF69B4" transform="rotate(-25 75 50)"/>
  <ellipse cx="115" cy="50" rx="12" ry="18" fill="#FF69B4" transform="rotate(25 115 50)"/>
  
  <!-- Pysk -->
  <ellipse cx="120" cy="75" rx="20" ry="15" fill="#FFB6C1"/>
  <ellipse cx="125" cy="75" rx="8" ry="6" fill="#FF1493"/>
  <circle cx="122" cy="72" r="2" fill="#8B0000"/>
  <circle cx="122" cy="78" r="2" fill="#8B0000"/>
  
  <!-- Oczy -->
  <circle cx="85" cy="65" r="5" fill="#000"/>
  <circle cx="86" cy="64" r="2" fill="#fff"/>
  <circle cx="105" cy="65" r="5" fill="#000"/>
  <circle cx="106" cy="64" r="2" fill="#fff"/>
  
  <!-- Nogi -->
  <rect x="70" y="140" width="12" height="30" rx="6" fill="#FF69B4"/>
  <rect x="118" y="140" width="12" height="30" rx="6" fill="#FF69B4"/>
  <ellipse cx="76" cy="168" rx="8" ry="4" fill="#8B0000"/>
  <ellipse cx="124" cy="168" rx="8" ry="4" fill="#8B0000"/>
  
  <!-- Ogonek -->
  <path d="M 160 110 Q 170 100 165 90" stroke="#FF69B4" stroke-width="4" fill="none" stroke-linecap="round"/>
  
  <!-- Warzywa (marchewka) -->
  <path d="M 40 130 L 50 125 L 48 140 Z" fill="#FF6600"/>
  <path d="M 48 122 L 50 115" stroke="#228B22" stroke-width="2"/>
</svg>
